<?xml version="1.0" encoding="UTF-8"?>
<svg id="Layer_1" data-name="Layer 1" xmlns="http://www.w3.org/2000/svg" viewBox="0 0 1330.33 1309.22">
  <defs>
    <style>
      .cls-1 {
        fill: #3a7728;
      }

      .cls-1, .cls-2, .cls-3, .cls-4, .cls-5, .cls-6, .cls-7 {
        fill-rule: evenodd;
        stroke-width: 0px;
      }

      .cls-2 {
        fill: #0c1c8c;
      }

      .cls-3 {
        fill: #2d601c;
      }

      .cls-4 {
        fill: #b21229;
      }

      .cls-5 {
        fill: #ce1126;
      }

      .cls-6 {
        fill: #ec3237;
      }

      .cls-7 {
        fill: #c62430;
      }
    </style>
  </defs>
  <polygon class="cls-7" points="1233.95 256.31 1247.89 299.45 1293.21 299.36 1256.49 325.93 1270.58 369.02 1233.95 342.3 1197.33 369.02 1211.42 325.93 1174.7 299.36 1220.04 299.45 1233.95 256.31"/>
  <polygon class="cls-3" points="1126.87 331.68 1135.46 358.28 1163.41 358.22 1140.77 374.61 1149.45 401.17 1126.87 384.7 1104.3 401.17 1112.98 374.61 1090.34 358.22 1118.29 358.28 1126.87 331.68"/>
  <polygon class="cls-6" points="1233.95 256.68 1247.77 299.45 1292.7 299.36 1256.29 325.7 1270.26 368.42 1233.95 341.93 1197.65 368.42 1211.62 325.7 1175.21 299.36 1220.16 299.45 1233.95 256.68"/>
  <polygon class="cls-1" points="1126.87 333.28 1135.2 359.06 1162.29 359.01 1140.34 374.89 1148.76 400.64 1126.87 384.67 1104.99 400.64 1113.4 374.89 1091.46 359.01 1118.55 359.06 1126.87 333.28"/>
  <polygon class="cls-2" points="1129.01 223.64 1137.34 249.42 1164.43 249.37 1142.49 265.25 1150.9 291 1129.01 275.04 1107.13 291 1115.55 265.25 1093.6 249.37 1120.69 249.42 1129.01 223.64"/>
  <path class="cls-4" d="M75.49,854.42c86.97,218.86,300.9,349.47,523.6,340.93,121.74,3.92,261.83-52.79,354.44-128.42,70.07-57.24,128.64-150.9,156.5-178.55,33.02-32.77,112.39-171.81,103.2-172.91-40.5-4.83-48.02,9.12-73.7,36.66-26.35,28.27-62.47,67.63-81.46,88.12-29.64,32-168,127.56-206.03,128.15-22.14.35-33.18-15.93-25.48-34.4,4.57-10.98,20.67-22.95,33.91-34.16,42.38-35.89,101.05-74.64,74.15-74.98-26.89-.35-54.28,6.1-115.43,40.23-61.14,34.13-103.82,68.41-162.54,135.67-40.83,46.77-48.15,62.56-73.84,79.53-62.56,41.32-167.88-11.96-226.16-45.05-133.95-76.09-230.61-219.54-239.29-373.9-2.33-41.51.41-82.77,7.86-122.94,31.38-169.12,146.31-318.91,317.93-387.11,57.04-22.67,115.72-34.45,173.73-36.4-78.8-5.7-160.06,5.84-238.39,36.96C100.85,262.17-34.83,576.79,75.49,854.42Z"/>
  <path class="cls-5" d="M633.55,1194.89c112.98-6.36,235.99-59.39,319.98-127.97,70.07-57.24,128.64-150.9,156.5-178.55,5.79-5.74,13-14.76,20.91-25.72,18.51-43.9,31.39-90.74,37.78-139.62-9.24,6.41-17.26,16.27-29.2,29.09-26.35,28.26-62.46,67.62-81.46,88.12-29.64,31.99-168,127.54-206.03,128.15-22.14.35-33.18-15.92-25.48-34.4,4.56-10.98,20.66-22.95,33.91-34.16,42.38-35.89,101.06-74.64,74.15-74.97-26.89-.35-54.28,6.1-115.43,40.23-61.14,34.13-103.82,68.41-162.54,135.67-40.82,46.76-48.15,62.56-73.85,79.53-62.56,41.32-167.87-11.96-226.15-45.05-133.96-76.09-230.61-219.54-239.29-373.9-2.33-41.51.42-82.77,7.87-122.94,31.38-169.12,146.3-318.92,317.92-387.11,57.04-22.66,115.71-34.45,173.74-36.4-19.62-1.42-39.39-1.77-59.24-1.01C292.21,149.45,87.44,376.83,87.44,651.97c0,299.82,243.14,542.96,542.97,542.96,1.05,0,2.09-.03,3.15-.04Z"/>
  <path class="cls-1" d="M657.67,600.98c41.46-39.61,97.74-52.12,158.02-57.94-5.86,45.28-131.95,175.55-138.07,383.34,83.67-247.35,334.44-380.48,346.36-169.33,33.63-77.78,43.71-149.66-111.05-180.33-8.08-15.57,4.51-28.92,18.11-41.75,86.46-7.7,167.32-27.61,211.79-117.77-136.07,124.4-334.43-35.82-485.16,183.78h0ZM792.41,322.22l1.93.11v42.68l-6.57,11.34,19.83.58s-3.94-8.06-7.13-12.98v-41.28l42.16,2.41c7.33-16.15,32.98-25.11,47.84-28.67,13.5-3.24,35.35-6.21,49.65-.32l29.35-25.68-98.2-6.96-76.93,57.26v.06l-1.93,1.44h0ZM849.79,333.32c1.67-22.97,71.13-39.81,90.12-27.07l21.09,31.94-1.87.34c-13.11-11.39-30.24-18.28-48.96-18.28-28.3,0-52.95,15.75-65.63,38.97l-.43.08,5.68-25.98h0ZM910.16,337.23c31.87,0,57.73,25.85,57.73,57.73s-25.86,57.73-57.73,57.73-57.74-25.85-57.74-57.73,25.85-57.73,57.74-57.73Z"/>
  <path class="cls-2" d="M302.51,731.33c33.01-31.54,77.83-41.5,125.84-46.14-4.67,36.06-105.08,139.79-109.95,305.26,66.63-196.97,266.32-302.98,275.82-134.84,26.77-61.94,34.81-119.17-88.43-143.6-6.44-12.4,3.58-23.03,14.41-33.25,68.85-6.13,133.25-21.99,168.66-93.78-108.36,99.06-266.32-28.53-386.35,146.35h0ZM409.81,509.35l1.53.09v33.99l-5.23,9.03,15.79.46s-3.14-6.42-5.68-10.34v-32.87l33.58,1.92c5.84-12.86,26.26-20,38.1-22.83,10.75-2.58,28.16-4.95,39.54-.26l23.37-20.45-78.2-5.54-61.27,45.6v.05l-1.53,1.14h0ZM455.5,518.19c1.33-18.29,56.65-31.7,71.77-21.55l16.79,25.43-1.48.27c-10.45-9.07-24.08-14.56-38.99-14.56-22.55,0-42.17,12.54-52.26,31.03l-.35.06,4.52-20.68h0ZM503.58,521.31c25.38,0,45.97,20.58,45.97,45.97s-20.59,45.97-45.97,45.97-45.98-20.58-45.98-45.97,20.59-45.97,45.98-45.97Z"/>
</svg>