<svg width="400" height="150" viewBox="0 0 400 150" fill="none" xmlns="http://www.w3.org/2000/svg">
<rect width="400" height="150" fill="white"/>
<path fill-rule="evenodd" clip-rule="evenodd" d="M143.889 31.6895L145.516 36.734L150.816 36.7235L146.523 39.8299L148.171 44.864L143.889 41.7435L139.607 44.864L141.255 39.8299L136.963 36.7235L142.263 36.734L143.889 31.6895Z" fill="#C62430"/>
<path fill-rule="evenodd" clip-rule="evenodd" d="M131.372 40.5015L132.376 43.6079L135.644 43.6044L132.999 45.518L134.01 48.6245L131.372 46.6969L128.735 48.6245L129.749 45.518L127.104 43.6044L130.368 43.6079L131.372 40.5015Z" fill="#2D601C"/>
<path fill-rule="evenodd" clip-rule="evenodd" d="M143.89 31.7349L145.502 36.7339L150.757 36.7234L146.499 39.8019L148.133 44.7939L143.89 41.6979L139.646 44.7939L141.28 39.8019L137.022 36.7234L142.277 36.7339L143.89 31.7349Z" fill="#EC3237"/>
<path fill-rule="evenodd" clip-rule="evenodd" d="M131.373 40.687L132.345 43.699L135.515 43.6955L132.947 45.5496L133.93 48.5616L131.373 46.6935L128.815 48.5616L129.798 45.5496L127.234 43.6955L130.4 43.699L131.373 40.687Z" fill="#3A7728"/>
<path fill-rule="evenodd" clip-rule="evenodd" d="M131.624 27.873L132.597 30.8851L135.763 30.8816L133.199 32.7357L134.182 35.7477L131.624 33.8796L129.067 35.7477L130.05 32.7357L127.486 30.8816L130.652 30.8851L131.624 27.873Z" fill="#0C1C8C"/>
<path fill-rule="evenodd" clip-rule="evenodd" d="M8.48507 101.599C18.6511 127.178 43.6567 142.445 69.6839 141.448C83.9149 141.906 100.287 135.277 111.111 126.437C119.3 119.748 126.146 108.798 129.403 105.566C133.262 101.735 142.539 85.4823 141.465 85.3564C136.732 84.7897 135.85 86.4234 132.849 89.6418C129.767 92.9441 125.548 97.5444 123.326 99.9407C119.863 103.68 103.691 114.85 99.2443 114.92C96.6556 114.962 95.3683 113.059 96.2673 110.901C96.8025 109.617 98.6846 108.218 100.231 106.909C105.184 102.715 112.041 98.1846 108.9 98.1461C105.758 98.1041 102.554 98.8597 95.4067 102.848C88.2598 106.836 83.2712 110.845 76.4076 118.705C71.636 124.173 70.7789 126.017 67.7774 128C60.466 132.828 48.1555 126.605 41.3444 122.735C25.6861 113.843 14.3902 97.0756 13.3757 79.035C13.1028 74.1829 13.4246 69.3623 14.2957 64.6641C17.9654 44.8988 31.3953 27.39 51.4544 19.4174C58.1221 16.7692 64.9787 15.3909 71.7619 15.1635C62.5509 14.4988 53.0531 15.8456 43.8981 19.4839C11.4481 32.3785 -4.40957 69.1524 8.48507 101.602V101.599Z" fill="#B21229"/>
<path fill-rule="evenodd" clip-rule="evenodd" d="M73.7138 141.396C86.9198 140.651 101.298 134.455 111.114 126.441C119.303 119.752 126.149 108.802 129.406 105.57C130.082 104.898 130.925 103.845 131.852 102.565C134.014 97.4329 135.521 91.9581 136.266 86.2454C135.186 86.994 134.248 88.1485 132.852 89.6457C129.77 92.9481 125.551 97.5483 123.33 99.9446C119.867 103.684 103.694 114.851 99.2477 114.924C96.659 114.966 95.3716 113.063 96.2707 110.905C96.8024 109.621 98.6845 108.222 100.234 106.913C105.188 102.719 112.048 98.1885 108.903 98.15C105.762 98.108 102.557 98.8637 95.4101 102.852C88.2632 106.84 83.2746 110.849 76.411 118.709C71.6393 124.174 70.7823 126.021 67.7807 128.004C60.4693 132.832 48.1589 126.605 41.3478 122.739C25.6895 113.847 14.3936 97.0796 13.3791 79.039C13.1062 74.1869 13.428 69.3627 14.2991 64.668C17.9653 44.8993 31.3987 27.3939 51.4578 19.4213C58.1255 16.7731 64.9821 15.3948 71.7653 15.1674C69.4704 15.003 67.1616 14.961 64.8422 15.0485C33.8195 19.2079 9.88428 45.7808 9.88428 77.9405C9.88428 112.983 38.3008 141.403 73.3465 141.403C73.4689 141.403 73.5914 141.399 73.7138 141.399V141.396Z" fill="#CE1126"/>
<path fill-rule="evenodd" clip-rule="evenodd" d="M76.5334 71.9759C81.3786 67.3476 87.9588 65.8853 95.0043 65.2032C94.3187 70.4961 79.5804 85.7206 78.8668 110.009C88.648 81.0994 117.957 65.539 119.349 90.2159C123.277 81.1238 124.46 72.7245 106.37 69.1387C105.426 67.3196 106.898 65.7594 108.487 64.2587C118.593 63.3596 128.046 61.0297 133.24 50.4929C117.337 65.0318 94.1508 46.3055 76.5334 71.9724V71.9759ZM92.2792 39.3964L92.5031 39.4104V44.3989L91.7334 45.7248L94.0528 45.7948C94.0528 45.7948 93.591 44.8537 93.2202 44.2765V39.4524L98.1493 39.7357C99.0064 37.8467 102.004 36.8007 103.743 36.3844C105.321 36.0066 107.874 35.6567 109.547 36.3459L112.978 33.3444L101.501 32.5293L92.5101 39.2215V39.2285L92.2862 39.3964H92.2792ZM98.9854 40.6908C99.1813 38.0076 107.301 36.0381 109.519 37.5283L111.985 41.261L111.768 41.2995C110.236 39.9666 108.235 39.162 106.045 39.162C102.736 39.162 99.8564 41.0021 98.3732 43.7168L98.3242 43.7273L98.9889 40.6908H98.9854ZM106.045 41.1491C109.771 41.1491 112.793 44.1716 112.793 47.8972C112.793 51.6229 109.771 54.6454 106.045 54.6454C102.319 54.6454 99.2967 51.6229 99.2967 47.8972C99.2967 44.1716 102.319 41.1491 106.045 41.1491Z" fill="#3A7728"/>
<path fill-rule="evenodd" clip-rule="evenodd" d="M35.0197 87.2138C38.8783 83.5266 44.1152 82.3616 49.7264 81.8229C49.1807 86.0383 37.444 98.1634 36.8772 117.502C44.6644 94.4797 68.0049 82.0888 69.1138 101.742C72.2413 94.5042 73.1823 87.812 58.7764 84.9574C58.0243 83.5091 59.1962 82.2637 60.4626 81.0708C68.5086 80.3537 76.0369 78.4996 80.1754 70.1107C67.5081 81.69 49.0477 66.7768 35.0197 87.2173V87.2138ZM47.561 61.267L47.7394 61.2775V65.2516L47.1272 66.3081L48.9743 66.364C48.9743 66.364 48.607 65.6119 48.3096 65.1571V61.316L52.2347 61.5399C52.9168 60.0357 55.3062 59.2031 56.688 58.8707C57.9439 58.5699 59.9798 58.29 61.3092 58.8392L64.0413 56.4499L54.9004 55.8027L47.7394 61.1341V61.1411L47.561 61.274V61.267ZM52.9028 62.299C53.0603 60.1616 59.5251 58.5944 61.2917 59.7803L63.2542 62.7538L63.0793 62.7853C61.8584 61.7253 60.2632 61.0851 58.5211 61.0851C55.8869 61.0851 53.592 62.5509 52.4131 64.7129L52.3711 64.7198L52.8993 62.3025L52.9028 62.299ZM58.5211 62.6629C61.4876 62.6629 63.8944 65.0697 63.8944 68.0362C63.8944 71.0028 61.4876 73.4096 58.5211 73.4096C55.5545 73.4096 53.1477 71.0028 53.1477 68.0362C53.1477 65.0697 55.5545 62.6629 58.5211 62.6629Z" fill="#0C1C8C"/>
<path d="M182.867 66.2245C182.867 68.0296 181.405 69.4954 179.596 69.4954H175.86C174.055 69.4954 172.589 70.9577 172.589 72.7663V97.0303H164.917V72.7663C164.917 70.9612 163.455 69.4954 161.646 69.4954H157.91C156.105 69.4954 154.639 68.0331 154.639 66.2245C154.639 64.4194 156.102 62.9536 157.91 62.9536H179.593C181.398 62.9536 182.864 64.4159 182.864 66.2245H182.867Z" fill="#050816"/>
<path d="M209.195 62.9536H215.146C215.621 62.9536 216.006 63.3384 216.006 63.8142V97.0303H208.335V82.5755H195.454V97.0303H187.782V63.8142C187.782 63.3384 188.167 62.9536 188.643 62.9536H194.593C195.069 62.9536 195.454 63.3384 195.454 63.8142V75.9847H208.335V63.8142C208.335 63.3384 208.719 62.9536 209.195 62.9536Z" fill="#050816"/>
<path d="M223.874 97.0268V62.9536H246.885V69.394H231.545V76.0792H245.164V82.3725H231.545V90.583H248.015V97.0233H223.874V97.0268Z" fill="#050816"/>
<path d="M278.94 66.2245C278.94 68.0296 277.478 69.4954 275.669 69.4954H271.933C270.128 69.4954 268.662 70.9577 268.662 72.7663V97.0303H260.991V72.7663C260.991 70.9612 259.528 69.4954 257.72 69.4954H253.984C252.178 69.4954 250.713 68.0331 250.713 66.2245C250.713 64.4194 252.175 62.9536 253.984 62.9536H275.666C277.471 62.9536 278.937 64.4159 278.937 66.2245H278.94Z" fill="#050816"/>
<path d="M296.152 96.8383V65.0285C296.152 63.8846 297.079 62.9575 298.223 62.9575H315.378C315.483 62.9575 315.571 63.045 315.571 63.1499V65.6687C315.571 65.7736 315.483 65.8611 315.378 65.8611H299.685C299.58 65.8611 299.493 65.9485 299.493 66.0535V77.6678C299.493 77.7727 299.58 77.8602 299.685 77.8602H313.559C313.664 77.8602 313.752 77.9476 313.752 78.0526V80.5713C313.752 80.6763 313.664 80.7638 313.559 80.7638H299.685C299.58 80.7638 299.493 80.8512 299.493 80.9562V96.8488C299.493 96.9538 299.405 97.0412 299.3 97.0412H296.341C296.236 97.0412 296.148 96.9538 296.148 96.8488L296.152 96.8383Z" fill="#050816"/>
<path d="M340.353 96.1418C339.401 96.4042 338.124 96.698 336.519 97.0269C334.913 97.3557 332.947 97.5201 330.617 97.5201C328.714 97.5201 327.126 97.2403 325.849 96.6841C324.572 96.1278 323.537 95.3407 322.753 94.3227C321.966 93.3082 321.403 92.0768 321.056 90.6355C320.713 89.1942 320.539 87.6025 320.539 85.8674V71.6084H323.736V84.8354C323.736 86.637 323.865 88.1622 324.128 89.4076C324.39 90.653 324.817 91.6605 325.405 92.4301C325.996 93.1998 326.755 93.7595 327.693 94.1023C328.627 94.4452 329.767 94.6201 331.11 94.6201C332.618 94.6201 333.93 94.5396 335.042 94.3752C336.155 94.2108 336.862 94.0638 337.155 93.9309V71.6084H340.353V96.1418Z" fill="#050816"/>
<path d="M348.808 72.4936C349.76 72.2312 351.036 71.9373 352.642 71.6085C354.248 71.2796 356.214 71.1152 358.544 71.1152C360.478 71.1152 362.091 71.3951 363.385 71.9513C364.68 72.5076 365.712 73.3052 366.481 74.3372C367.251 75.3691 367.8 76.6075 368.129 78.0488C368.458 79.4901 368.622 81.0818 368.622 82.817V97.027H365.425V83.849C365.425 82.0474 365.302 80.5221 365.058 79.2767C364.813 78.0313 364.4 77.0133 363.83 76.2297C363.256 75.4426 362.5 74.8794 361.566 74.5331C360.632 74.1867 359.46 74.0153 358.051 74.0153C356.543 74.0153 355.238 74.0958 354.143 74.2602C353.045 74.4246 352.331 74.5715 352.006 74.701V97.0235H348.808V72.4901V72.4936Z" fill="#050816"/>
<path d="M396.993 96.2396C396.041 96.5684 394.831 96.8798 393.355 97.1736C391.879 97.4675 390.01 97.6179 387.751 97.6179C385.882 97.6179 384.186 97.3136 382.661 96.7084C381.135 96.1032 379.823 95.2251 378.729 94.0777C377.63 92.9302 376.776 91.5379 376.171 89.8972C375.566 88.26 375.262 86.4059 375.262 84.342C375.262 82.4074 375.514 80.6303 376.024 79.0071C376.532 77.3839 377.277 75.9846 378.263 74.8022C379.246 73.6232 380.45 72.7032 381.877 72.049C383.304 71.3948 384.934 71.066 386.771 71.066C388.443 71.066 389.891 71.3039 391.123 71.7797C392.351 72.2554 393.246 72.7067 393.803 73.1335V59.4657L397 58.8745V96.2431L396.993 96.2396ZM393.796 76.2295C393.502 76.0021 393.131 75.7537 392.69 75.4913C392.246 75.229 391.732 74.9841 391.14 74.7532C390.549 74.5258 389.913 74.3369 389.223 74.1865C388.534 74.0395 387.814 73.9661 387.061 73.9661C385.487 73.9661 384.168 74.2459 383.105 74.8022C382.038 75.3584 381.177 76.1035 380.523 77.0411C379.865 77.9751 379.393 79.0735 379.096 80.3364C378.802 81.5993 378.652 82.9357 378.652 84.342C378.652 87.6863 379.488 90.2505 381.16 92.0382C382.832 93.8258 385.043 94.7178 387.796 94.7178C389.37 94.7178 390.64 94.6444 391.606 94.4975C392.571 94.3505 393.302 94.1966 393.792 94.0322V76.233L393.796 76.2295Z" fill="#050816"/>
</svg>
