<?xml version="1.0" encoding="UTF-8"?>
<svg id="Layer_1" data-name="Layer 1" xmlns="http://www.w3.org/2000/svg" viewBox="0 0 1176.26 402.11">
  <defs>
    <style>
      .cls-1 {
        fill: #3a7728;
      }

      .cls-1, .cls-2, .cls-3, .cls-4, .cls-5, .cls-6, .cls-7, .cls-8 {
        stroke-width: 0px;
      }

      .cls-1, .cls-2, .cls-3, .cls-4, .cls-5, .cls-6, .cls-8 {
        fill-rule: evenodd;
      }

      .cls-2 {
        fill: #0c1c8c;
      }

      .cls-3 {
        fill: #2d601c;
      }

      .cls-4 {
        fill: #b21229;
      }

      .cls-5 {
        fill: #ce1126;
      }

      .cls-6 {
        fill: #ec3237;
      }

      .cls-7 {
        fill: #07134f;
      }

      .cls-8 {
        fill: #c62430;
      }
    </style>
  </defs>
  <g>
    <polygon class="cls-8" points="417.01 65.68 421.67 80.1 436.81 80.07 424.54 88.95 429.25 103.34 417.01 94.42 404.78 103.34 409.48 88.95 397.21 80.07 412.36 80.1 417.01 65.68"/>
    <polygon class="cls-3" points="381.23 90.87 384.1 99.75 393.44 99.74 385.88 105.21 388.78 114.09 381.23 108.58 373.69 114.09 376.59 105.21 369.03 99.74 378.36 99.75 381.23 90.87"/>
    <polygon class="cls-6" points="417.01 65.81 421.63 80.1 436.64 80.07 424.47 88.87 429.14 103.14 417.01 94.29 404.88 103.14 409.55 88.87 397.39 80.07 412.4 80.1 417.01 65.81"/>
    <polygon class="cls-1" points="381.23 91.4 384.01 100.01 393.07 100 385.73 105.3 388.55 113.91 381.23 108.57 373.92 113.91 376.73 105.3 369.4 100 378.45 100.01 381.23 91.4"/>
    <polygon class="cls-2" points="381.95 54.77 384.73 63.39 393.78 63.37 386.45 68.67 389.26 77.28 381.95 71.94 374.64 77.28 377.45 68.67 370.12 63.37 379.17 63.39 381.95 54.77"/>
    <path class="cls-4" d="M29.95,265.52c29.06,73.12,100.54,116.76,174.94,113.91,40.68,1.31,87.48-17.64,118.42-42.91,23.41-19.12,42.98-50.42,52.29-59.66,11.03-10.95,37.55-57.41,34.48-57.77-13.53-1.62-16.05,3.05-24.63,12.25-8.81,9.44-20.87,22.59-27.22,29.44-9.9,10.69-56.13,42.62-68.84,42.82-7.4.12-11.08-5.32-8.51-11.49,1.53-3.67,6.91-7.67,11.33-11.41,14.16-11.99,33.76-24.94,24.78-25.05-8.98-.12-18.14,2.04-38.57,13.44-20.43,11.4-34.69,22.86-54.31,45.33-13.64,15.63-16.09,20.9-24.67,26.57-20.9,13.8-56.09-3.99-75.56-15.05-44.76-25.42-77.05-73.35-79.95-124.92-.78-13.87.14-27.65,2.63-41.08,10.49-56.5,48.88-106.55,106.22-129.34,19.06-7.57,38.66-11.51,58.05-12.16-26.33-1.9-53.48,1.95-79.65,12.35C38.43,67.64-6.9,172.76,29.95,265.52Z"/>
    <path class="cls-5" d="M216.41,379.28c37.75-2.13,78.85-19.84,106.91-42.75,23.41-19.12,42.98-50.42,52.29-59.66,1.93-1.92,4.34-4.93,6.99-8.59,6.18-14.67,10.49-30.32,12.62-46.65-3.09,2.14-5.77,5.44-9.76,9.72-8.81,9.44-20.87,22.59-27.22,29.44-9.9,10.69-56.13,42.61-68.84,42.82-7.4.12-11.08-5.32-8.51-11.49,1.52-3.67,6.9-7.67,11.33-11.41,14.16-11.99,33.77-24.94,24.78-25.05-8.98-.12-18.14,2.04-38.57,13.44-20.43,11.4-34.69,22.86-54.31,45.33-13.64,15.62-16.09,20.9-24.67,26.57-20.9,13.8-56.09-4-75.56-15.05-44.76-25.42-77.05-73.35-79.95-124.92-.78-13.87.14-27.66,2.63-41.08,10.48-56.51,48.88-106.55,106.22-129.34,19.06-7.57,38.66-11.51,58.05-12.16-6.56-.47-13.16-.59-19.79-.34C102.36,29.98,33.94,105.95,33.94,197.88c0,100.17,81.23,181.41,181.41,181.41.35,0,.7-.01,1.05-.01Z"/>
    <path class="cls-1" d="M224.47,180.84c13.85-13.23,32.66-17.41,52.8-19.36-1.96,15.13-44.09,58.65-46.13,128.08,27.96-82.64,111.74-127.12,115.72-56.58,11.23-25.99,14.61-50-37.1-60.25-2.7-5.2,1.51-9.66,6.05-13.95,28.89-2.57,55.91-9.23,70.76-39.35-45.46,41.56-111.74-11.97-162.1,61.4h0ZM269.49,87.71l.64.04v14.26l-2.2,3.79,6.63.2s-1.32-2.69-2.38-4.34v-13.79l14.09.81c2.45-5.4,11.02-8.39,15.99-9.58,4.51-1.08,11.81-2.08,16.59-.11l9.81-8.58-32.81-2.33-25.7,19.13v.02l-.64.48h0ZM288.66,91.41c.56-7.67,23.77-13.3,30.11-9.04l7.05,10.67-.62.11c-4.38-3.81-10.1-6.11-16.36-6.11-9.46,0-17.69,5.26-21.93,13.02l-.14.03,1.9-8.68h0ZM308.83,92.72c10.65,0,19.29,8.64,19.29,19.29s-8.64,19.29-19.29,19.29-19.29-8.64-19.29-19.29,8.64-19.29,19.29-19.29Z"/>
    <path class="cls-2" d="M105.8,224.4c11.03-10.54,26-13.87,42.04-15.41-1.56,12.05-35.11,46.71-36.73,101.99,22.26-65.81,88.98-101.23,92.15-45.05,8.94-20.69,11.63-39.82-29.55-47.98-2.15-4.14,1.2-7.7,4.82-11.11,23-2.05,44.52-7.35,56.35-31.33-36.21,33.1-88.98-9.53-129.08,48.9h0ZM141.65,150.23l.51.03v11.36l-1.75,3.02,5.28.16s-1.05-2.15-1.9-3.45v-10.98l11.22.64c1.95-4.3,8.78-6.68,12.73-7.63,3.59-.86,9.41-1.66,13.21-.09l7.81-6.83-26.13-1.85-20.47,15.24v.02l-.51.38h0ZM156.92,153.18c.45-6.11,18.93-10.59,23.98-7.2l5.61,8.5-.5.09c-3.49-3.03-8.05-4.86-13.03-4.86-7.53,0-14.09,4.19-17.46,10.37l-.12.02,1.51-6.91h0ZM172.98,154.22c8.48,0,15.36,6.88,15.36,15.36s-6.88,15.36-15.36,15.36-15.36-6.88-15.36-15.36,6.88-15.36,15.36-15.36Z"/>
  </g>
  <g>
    <path class="cls-7" d="M528.11,142.76l-.54,16.65c-10.33-.77-20.06-1.16-29.19-1.16-.1,9.76-.15,20.62-.15,32.6,0,18.58.28,36.16.85,52.74h-21.68c.67-16.42,1.01-34,1.01-52.74,0-11.77-.1-22.64-.31-32.6-7.28,0-17.27.41-29.97,1.24l.62-16.73h79.37Z"/>
    <path class="cls-7" d="M622.27,243.58h-21.92c.52-17.09.77-31.9.77-44.45h-39.03c0,11.26.26,26.07.77,44.45h-21.92c.67-17.04,1.01-34.61,1.01-52.74s-.34-34.36-1.01-48.09h21.92c-.62,14.51-.93,27.93-.93,40.27h39.34c0-10.89-.31-24.32-.93-40.27h21.92c-.72,13.11-1.08,29.14-1.08,48.09s.36,37.35,1.08,52.74Z"/>
    <path class="cls-7" d="M711.1,226.55l-.62,17.04h-65.9c.67-15.59,1.01-33.17,1.01-52.74s-.34-34.82-1.01-48.09h62.88l-.85,16.96c-15.49-.83-29.53-1.24-42.13-1.24.52,7.18.77,15.64.77,25.4,10.79,0,22.33-.28,34.62-.85v16.18c-12.08-.52-23.62-.77-34.62-.77,0,10.48.21,20.29.62,29.43,14.14,0,29.22-.44,45.22-1.32Z"/>
    <path class="cls-7" d="M798.76,142.76l-.54,16.65c-10.33-.77-20.06-1.16-29.19-1.16-.1,9.76-.15,20.62-.15,32.6,0,18.58.28,36.16.85,52.74h-21.68c.67-16.42,1.01-34,1.01-52.74,0-11.77-.1-22.64-.31-32.6-7.28,0-17.27.41-29.97,1.24l.62-16.73h79.37Z"/>
    <path class="cls-7" d="M909.03,142.76l-.62,11.54c-13.73-.62-29.3-.93-46.7-.93.62,8.57.93,20.39.93,35.47,12.13,0,23.93-.21,35.39-.62v11.23c-11.05-.41-22.84-.62-35.39-.62,0,20.19.28,35.11.85,44.76h-14.09c.72-16,1.08-33.66,1.08-52.97,0-18.17-.36-34.12-1.08-47.86h59.63Z"/>
    <path class="cls-7" d="M987.94,243.51l-12,.46c-.72-2.89-1.08-5.27-1.08-7.12h-.77c-6.87,5.78-15.2,8.67-25.01,8.67-8.93,0-15.42-2.16-19.48-6.47-4.05-4.31-6.08-13-6.08-26.06,0-1.86.05-4.62.16-8.29.1-3.67.16-6.17.16-7.51,0-7.59-.44-16.52-1.32-26.79l14.4-.54c-.62,9.96-.93,18.48-.93,25.55,0,16.26,1.05,26.86,3.14,31.79,2.09,4.93,6.8,7.4,14.13,7.4,8.26,0,15.07-2.06,20.44-6.19,0-28.7-.26-48.04-.77-58l13.94-.54c-.41,9.71-.62,23.13-.62,40.27,0,11,.57,22.12,1.7,33.38Z"/>
    <path class="cls-7" d="M1073.2,243.58h-14.09c1.13-13.58,1.7-28.39,1.7-44.45,0-7.95-1.61-13.38-4.84-16.3-3.23-2.92-7.83-4.38-13.82-4.38-7.33,0-14.09,2.66-20.29,7.98,0,17.6.1,36.65.31,57.15h-14.09c.88-17.55,1.32-30.25,1.32-38.1,0-12.08-1.14-23.8-3.41-35.16l13.63-1.94,1.47,9.45h.62c7.64-6.92,15.82-10.38,24.55-10.38s15.2,1.9,19.9,5.69c4.7,3.79,7.05,10.54,7.05,20.25,0,.98-.05,2.92-.16,5.81-.1,2.89-.16,4.83-.16,5.81,0,8.62.1,21.48.31,38.56Z"/>
    <path class="cls-7" d="M1160.24,243.51l-11.54.39c-.41-2.22-.62-4.57-.62-7.05h-.85c-5.42,5.89-13.47,8.83-24.16,8.83-9.81,0-17.62-3.56-23.43-10.69-5.81-7.12-8.71-15.72-8.71-25.79,0-11.41,3.23-21.24,9.68-29.5,6.45-8.26,15.54-12.39,27.26-12.39,8.36,0,14.35,1.7,17.97,5.11h.62c0-12.8-.36-25.37-1.08-37.71l14.71-.54c-.98,13.11-1.47,30.28-1.47,51.5s.54,40.86,1.63,57.85ZM1147.77,228.25c0-16.06-.44-31.52-1.32-46.39-4.18-3.46-9.4-5.19-15.64-5.19-8.72,0-15.25,2.9-19.59,8.71-4.34,5.81-6.5,13.1-6.5,21.88,0,7.85,2.05,14.46,6.16,19.82,4.1,5.37,9.8,8.05,17.08,8.05,9.14,0,15.75-2.3,19.82-6.89Z"/>
  </g>
</svg>